#N canvas 1226 401 450 300 10;
#X obj 135 44 bng 15 250 50 0 empty empty empty 17 7 0 10 -262144 -1
-1;
#X msg 110 138 3;
#X obj 109 174 * 3;
#X obj 233 173 * 4;
#X obj 143 209 +;
#X obj 230 218 print;
#X floatatom 138 247 5 0 0 0 - - -;
#X text 275 102 in order to put in two colums together at once \, you
have to use a trigger to indicate two bangs;
#X obj 118 87 trigger bang bang;
#X msg 229 136 8;
#X connect 0 0 8 0;
#X connect 1 0 2 0;
#X connect 2 0 4 0;
#X connect 3 0 4 1;
#X connect 3 0 5 0;
#X connect 4 0 6 0;
#X connect 8 0 1 0;
#X connect 8 1 9 0;
#X connect 9 0 3 0;
