#N canvas 147 43 873 836 10;
#X obj 34 49 bng 15 250 50 0 empty empty empty 17 7 0 10 -262144 -1
-1;
#X msg 91 50 89;
#X msg 145 25 symbol dieter;
#X msg 264 50 list hello 43 now;
#X obj 81 128 route bang float symbol list;
#X msg 282 79 unspecified;
#X obj 63 182 print a;
#X obj 115 182 print b;
#X obj 166 182 print c;
#X obj 216 182 print d;
#X obj 266 182 print e;
#X obj 124 58 symbol;
#X msg 467 108 dieter hello;
#X obj 507 148 route dieter maria;
#X msg 555 108 maria 45 now;
#X msg 646 108 something else;
#X obj 478 184 print a;
#X obj 535 184 print b;
#X obj 594 183 print c;
#X msg 107 261 hello dieter;
#X obj 107 311 demux 0 1 2 3;
#X obj 98 347 print a;
#X obj 148 347 print b;
#X obj 199 347 print c;
#X obj 249 347 print d;
#X floatatom 182 285 5 0 0 0 - - -;
#X text 219 280 this number specifies where the other input \, "hello
dieter" \, will be output in a demux or demultiplex;
#X text 88 232 DEMULTIPLEX;
#X text 432 22 ROUTES;
#X floatatom 534 354 5 0 0 0 - - -;
#X obj 554 397 spigot;
#X text 594 299 SPIGOT Cant get this to work!;
#X obj 117 456 tgl 15 0 empty empty empty 17 7 0 10 -262144 -1 -1 1
1;
#X floatatom 117 493 5 0 0 0 - - -;
#X obj 586 362 tgl 15 0 empty empty empty 17 7 0 10 -262144 -1 -1 0
1;
#X floatatom 556 438 5 0 0 0 - - -;
#X text 107 419 TOGGLE on/off switch which is 1/0 true/false selector
;
#X obj 235 500 osc~ 500;
#X obj 235 541 *~;
#X obj 235 573 dac~;
#X obj 267 524 tgl 15 0 empty empty empty 17 7 0 10 -262144 -1 -1 0
1;
#X text 291 541 use the switch to turn a tone on and off;
#X msg 511 558 al 440;
#X msg 568 558 c2 524;
#X msg 624 557 e2 660;
#X obj 537 598 route al c2 e2;
#X floatatom 539 629 5 0 0 0 - - -;
#X obj 539 664 osc~ 500;
#X obj 611 719 tgl 15 0 empty empty empty 17 7 0 10 -262144 -1 -1 0
1;
#X obj 537 718 *~;
#X obj 537 740 dac~;
#X text 484 531 assign pitches with names to oscillator;
#X connect 0 0 4 0;
#X connect 1 0 4 0;
#X connect 2 0 11 0;
#X connect 3 0 4 0;
#X connect 4 0 6 0;
#X connect 4 1 7 0;
#X connect 4 2 8 0;
#X connect 4 3 9 0;
#X connect 4 4 10 0;
#X connect 5 0 4 0;
#X connect 11 0 4 0;
#X connect 12 0 13 0;
#X connect 13 0 16 0;
#X connect 13 1 17 0;
#X connect 13 2 18 0;
#X connect 14 0 13 0;
#X connect 15 0 13 0;
#X connect 19 0 20 0;
#X connect 20 0 21 0;
#X connect 20 1 22 0;
#X connect 20 2 23 0;
#X connect 20 3 24 0;
#X connect 25 0 20 1;
#X connect 29 0 30 0;
#X connect 30 0 35 0;
#X connect 32 0 33 0;
#X connect 34 0 30 1;
#X connect 37 0 38 0;
#X connect 38 0 39 0;
#X connect 38 0 39 1;
#X connect 40 0 38 1;
#X connect 42 0 45 0;
#X connect 43 0 45 0;
#X connect 44 0 45 0;
#X connect 45 0 46 0;
#X connect 45 1 46 0;
#X connect 45 2 46 0;
#X connect 45 3 46 0;
#X connect 46 0 47 0;
#X connect 47 0 49 0;
#X connect 48 0 49 1;
#X connect 49 0 50 0;
#X connect 49 0 50 1;
