#N canvas 811 23 1168 885 10;
#X obj 96 305 bng 15 250 50 0 empty empty empty 17 7 0 10 -262144 -1
-1;
#X obj 91 261 metro 500;
#X obj 93 207 tgl 15 0 empty empty empty 17 7 0 10 -262144 -1 -1 0
1;
#X obj 246 311 metro;
#X floatatom 320 210 5 0 0 0 - - -;
#X msg 256 209 60000;
#X obj 280 249 /;
#X obj 191 170 trigger bang bang bang;
#X obj 191 127 bng 15 250 50 0 empty empty empty 17 7 0 10 -262144
-1 -1;
#X floatatom 358 243 5 0 0 0 - - -;
#X obj 280 275 i;
#X floatatom 358 280 5 0 0 0 - - -;
#X msg 156 126 0;
#X obj 357 151 loadbang;
#X msg 356 180 60;
#X obj 246 340 i;
#X obj 275 340 + 1;
#X obj 244 391 % 8;
#X floatatom 245 365 5 0 0 0 - - -;
#X floatatom 243 420 5 0 0 0 - - -;
#X floatatom 193 349 5 0 0 0 - - -;
#X msg 300 313 0;
#X text 395 280 get the integer w/o decimals/ drop the floats;
#X text 281 391 make sure that count resets at 8;
#X text 242 94 REALLY COOL METRONOME FROM https://www.youtube.com/watch?v=7ucJoMEjqZI
;
#X text 110 47 METRONOME;
#X obj 716 251 metro;
#X floatatom 790 150 5 0 0 0 - - -;
#X msg 726 149 60000;
#X obj 750 189 /;
#X obj 661 110 trigger bang bang bang;
#X obj 661 67 bng 15 250 50 0 empty empty empty 17 7 0 10 -262144 -1
-1;
#X floatatom 828 183 5 0 0 0 - - -;
#X obj 750 215 i;
#X floatatom 828 220 5 0 0 0 - - -;
#X msg 626 66 0;
#X obj 827 91 loadbang;
#X msg 826 120 60;
#X obj 716 280 i;
#X obj 745 280 + 1;
#X obj 714 331 % 8;
#X floatatom 715 305 5 0 0 0 - - -;
#X floatatom 713 360 5 0 0 0 - - -;
#X floatatom 663 289 5 0 0 0 - - -;
#X msg 770 253 0;
#X text 865 220;
#X text 751 331;
#X obj 682 446 random 1000;
#X floatatom 693 470 5 0 0 0 - - -;
#X obj 699 500 *~;
#X obj 733 470 tgl 15 0 empty empty empty 17 7 0 10 -262144 -1 -1 0
1;
#X obj 705 527 *~ 0.4;
#X obj 709 556 dac~;
#X obj 714 425 bng 15 250 50 0 empty empty empty 17 7 0 10 -262144
-1 -1;
#X text 669 387 Connecting this to sound THIS HURTS MY EARS;
#X connect 1 0 0 0;
#X connect 2 0 1 0;
#X connect 3 0 15 0;
#X connect 3 0 20 0;
#X connect 4 0 6 1;
#X connect 5 0 6 0;
#X connect 6 0 9 0;
#X connect 6 0 10 0;
#X connect 7 0 3 0;
#X connect 7 1 5 0;
#X connect 7 2 4 0;
#X connect 8 0 7 0;
#X connect 10 0 11 0;
#X connect 10 0 3 1;
#X connect 12 0 3 0;
#X connect 13 0 14 0;
#X connect 14 0 4 0;
#X connect 15 0 16 0;
#X connect 15 0 18 0;
#X connect 16 0 15 1;
#X connect 17 0 19 0;
#X connect 18 0 17 0;
#X connect 21 0 15 1;
#X connect 26 0 38 0;
#X connect 26 0 43 0;
#X connect 27 0 29 1;
#X connect 28 0 29 0;
#X connect 29 0 32 0;
#X connect 29 0 33 0;
#X connect 30 0 26 0;
#X connect 30 1 28 0;
#X connect 30 2 27 0;
#X connect 31 0 30 0;
#X connect 33 0 34 0;
#X connect 33 0 26 1;
#X connect 35 0 26 0;
#X connect 36 0 37 0;
#X connect 37 0 27 0;
#X connect 38 0 39 0;
#X connect 38 0 41 0;
#X connect 39 0 38 1;
#X connect 40 0 42 0;
#X connect 41 0 40 0;
#X connect 44 0 38 1;
#X connect 47 0 48 0;
#X connect 48 0 49 0;
#X connect 49 0 51 0;
#X connect 50 0 49 1;
#X connect 51 0 52 0;
#X connect 51 0 52 1;
#X connect 53 0 47 0;
