#N canvas 105 23 1763 955 10;
#X msg 119 152 440 \, 880 2000;
#X obj 119 184 line;
#X floatatom 119 213 5 0 0 0 - - -;
#X obj 120 244 osc~;
#X obj 138 287 *~;
#X obj 167 260 tgl 15 0 empty empty empty 17 7 0 10 -262144 -1 -1 0
1;
#X obj 129 326 dac~;
#X text 100 127 GLISSANDO;
#X text 349 78 Automatic Random Melody;
#X obj 361 112 tgl 15 0 empty empty empty 17 7 0 10 -262144 -1 -1 0
1;
#X obj 356 185 bng 15 250 50 0 empty empty empty 17 7 0 10 -262144
-1 -1;
#X obj 360 213 random 1000;
#X floatatom 359 239 5 0 0 0 - - -;
#X obj 360 263 osc~;
#X obj 362 316 *~;
#X obj 354 351 dac~;
#X obj 378 292 tgl 15 0 empty empty empty 17 7 0 10 -262144 -1 -1 0
1;
#X obj 355 148 metro 1000;
#X text 427 109 turns on the metronome that controls the duration of
the bang being switched;
#X text 673 75 Irregular random rhythms;
#X obj 721 110 tgl 15 0 empty empty empty 17 7 0 10 -262144 -1 -1 0
1;
#X obj 729 141 metro 500;
#X obj 768 111 random 1000;
#X obj 726 177 bng 15 250 50 0 empty empty empty 17 7 0 10 -262144
-1 -1;
#X obj 955 77 tgl 15 0 empty empty empty 17 7 0 10 -262144 -1 -1 0
1;
#X obj 954 131 metro 500;
#X obj 1005 74 random 1000;
#X obj 951 167 bng 15 250 50 0 empty empty empty 17 7 0 10 -262144
-1 -1;
#X floatatom 949 231 5 0 0 0 - - -;
#X obj 942 317 osc~;
#X obj 944 370 *~;
#X obj 936 405 dac~;
#X obj 960 346 tgl 15 0 empty empty empty 17 7 0 10 -262144 -1 -1 0
1;
#X obj 934 254 hsl 128 15 0 127 0 0 empty empty empty -2 -8 0 10 -262144
-1 -1 9400 1;
#X obj 942 202 random 127;
#X obj 938 286 + 300;
#X text 825 267 graphic slider representation of where the random thning
is;
#X obj 123 549 bng 15 250 50 0 empty empty empty 17 7 0 10 -262144
-1 -1;
#X obj 122 489 tgl 15 0 empty empty empty 17 7 0 10 -262144 -1 -1 0
1;
#X obj 173 494 random 1000;
#X obj 201 623 random 1000;
#X obj 65 578 random 1000;
#X obj 109 619 osc~;
#X obj 110 664 *~;
#X text 137 423 these rythms can then be connected to the random generator
to create musical cannons;
#X obj 125 640 tgl 15 0 empty empty empty 17 7 0 10 -262144 -1 -1 0
1;
#X obj 201 602 bng 15 250 50 0 empty empty empty 17 7 0 10 -262144
-1 -1;
#X obj 204 645 osc~;
#X obj 202 686 *~;
#X obj 219 665 tgl 15 0 empty empty empty 17 7 0 10 -262144 -1 -1 0
1;
#X obj 137 759 dac~;
#X obj 144 737 *~ 0.4;
#X obj 121 517 metro 700;
#X obj 200 579 del 800;
#X floatatom 70 603 5 0 0 0 - - -;
#X floatatom 245 648 5 0 0 0 - - -;
#X floatatom 189 526 5 0 0 0 - - -;
#X obj 340 485 tgl 15 0 empty empty empty 17 7 0 10 -262144 -1 -1 0
1;
#X obj 341 514 metro 500;
#X obj 392 479 random 1000;
#X obj 429 671 tgl 15 0 empty empty empty 17 7 0 10 -262144 -1 -1 0
1;
#X obj 341 547 bng 15 250 50 0 empty empty empty 17 7 0 10 -262144
-1 -1;
#X obj 408 599 pipe 500;
#X floatatom 333 606 5 0 0 0 - - -;
#X floatatom 408 623 5 0 0 0 - - -;
#X obj 340 570 random 1000;
#X obj 408 649 osc~;
#X obj 333 629 osc~;
#X obj 406 693 *~;
#X obj 338 694 *~;
#X obj 356 673 tgl 15 0 empty empty empty 17 7 0 10 -262144 -1 -1 0
1;
#X obj 376 762 dac~;
#X obj 369 730 *~ 0.4;
#X text 467 584 or you can use a true canon which acheives the same
thing with numbers and letters as "delay" with bangs;
#X obj 750 490 tgl 15 0 empty empty empty 17 7 0 10 -262144 -1 -1 0
1;
#X obj 750 516 metro 500;
#X obj 801 490 random 1000;
#X obj 750 544 bng 15 250 50 0 empty empty empty 17 7 0 10 -262144
-1 -1;
#X obj 750 571 random 1000;
#X floatatom 750 607 5 0 0 0 - - -;
#X floatatom 825 629 5 0 0 0 - - -;
#X obj 825 607 pipe 500;
#X text 872 46 you can add this to a melody;
#X obj 750 631 osc~;
#X obj 750 659 *~;
#X obj 782 660 tgl 15 0 empty empty empty 17 7 0 10 -262144 -1 -1 1
1;
#X obj 825 652 osc~;
#X obj 825 680 *~;
#X obj 857 681 tgl 15 0 empty empty empty 17 7 0 10 -262144 -1 -1 1
1;
#X obj 781 709 *~ 0.4;
#X obj 916 592 metro 500;
#X obj 967 564 random 3000;
#X obj 916 566 tgl 15 0 empty empty empty 17 7 0 10 -262144 -1 -1 0
1;
#X obj 916 618 bng 15 250 50 0 empty empty empty 17 7 0 10 -262144
-1 -1;
#X obj 915 649 float;
#X obj 1000 649 sel 1;
#X floatatom 913 705 5 0 0 0 - - -;
#X obj 843 753 *~;
#X obj 840 782 dac~;
#X obj 1045 424 metro 500;
#X obj 1096 396 random 3000;
#X obj 1045 397 tgl 15 0 empty empty empty 17 7 0 10 -262144 -1 -1
0 1;
#X text 950 708 this raises the volume;
#X obj 932 674 + 0.005;
#X msg 968 621 0;
#X obj 1405 749 *~;
#X obj 1405 778 dac~;
#X obj 1323 345 tgl 15 0 empty empty empty 17 7 0 10 -262144 -1 -1
0 1;
#X obj 1323 371 metro 500;
#X obj 1374 345 random 1000;
#X obj 1323 399 bng 15 250 50 0 empty empty empty 17 7 0 10 -262144
-1 -1;
#X obj 1322 557 random 1000;
#X floatatom 1322 593 5 0 0 0 - - -;
#X floatatom 1397 615 5 0 0 0 - - -;
#X obj 1397 593 pipe 500;
#X obj 1322 617 osc~;
#X obj 1322 645 *~;
#X obj 1354 646 tgl 15 0 empty empty empty 17 7 0 10 -262144 -1 -1
0 1;
#X obj 1397 638 osc~;
#X obj 1397 666 *~;
#X obj 1429 667 tgl 15 0 empty empty empty 17 7 0 10 -262144 -1 -1
0 1;
#X obj 1353 695 *~ 0.4;
#X obj 1480 720 sig~;
#X obj 1485 664 line;
#X text 1524 661 send a series of linearly stepped numbers;
#X text 1521 695 convert numbers to audio signals;
#X msg 1503 632 \$1 \$2;
#X obj 1503 606 pack f f;
#X floatatom 1504 580 5 0 0 0 - - -;
#X obj 1566 541 sel 1;
#X msg 1545 509 -1;
#X obj 1496 403 bng 15 250 50 0 empty empty empty 17 7 0 10 -262144
-1 -1;
#X obj 1496 376 metro 500;
#X obj 1547 341 random 1000;
#X obj 1496 347 tgl 15 0 empty empty empty 17 7 0 10 -262144 -1 -1
0 1;
#X obj 1499 528 float;
#X text 1545 628 \$1 is the tone to go to \, \$2 is the span of time
to do it in;
#X text 1564 605 float these values;
#X text 1613 474 where to start;
#X text 1609 498 how much to increment;
#X floatatom 1481 698 5 0 0 0 - - -;
#X obj 1498 550 + 0.05;
#X connect 0 0 1 0;
#X connect 1 0 2 0;
#X connect 2 0 3 0;
#X connect 3 0 4 0;
#X connect 4 0 6 0;
#X connect 4 0 6 1;
#X connect 5 0 4 1;
#X connect 9 0 17 0;
#X connect 10 0 11 0;
#X connect 11 0 12 0;
#X connect 12 0 13 0;
#X connect 13 0 14 0;
#X connect 14 0 15 0;
#X connect 14 0 15 1;
#X connect 16 0 14 1;
#X connect 17 0 10 0;
#X connect 20 0 21 0;
#X connect 21 0 22 0;
#X connect 21 0 23 0;
#X connect 22 0 21 1;
#X connect 24 0 25 0;
#X connect 25 0 26 0;
#X connect 25 0 27 0;
#X connect 26 0 25 1;
#X connect 27 0 34 0;
#X connect 28 0 33 0;
#X connect 29 0 30 0;
#X connect 30 0 31 0;
#X connect 30 0 31 1;
#X connect 32 0 30 1;
#X connect 33 0 35 0;
#X connect 34 0 28 0;
#X connect 35 0 29 0;
#X connect 37 0 41 0;
#X connect 37 0 53 0;
#X connect 38 0 52 0;
#X connect 39 0 52 1;
#X connect 39 0 56 0;
#X connect 40 0 47 0;
#X connect 40 0 55 0;
#X connect 41 0 42 0;
#X connect 41 0 54 0;
#X connect 42 0 43 0;
#X connect 43 0 51 0;
#X connect 45 0 43 1;
#X connect 46 0 40 0;
#X connect 47 0 48 0;
#X connect 48 0 51 0;
#X connect 49 0 48 1;
#X connect 51 0 50 0;
#X connect 51 0 50 1;
#X connect 52 0 37 0;
#X connect 52 0 39 0;
#X connect 53 0 46 0;
#X connect 57 0 58 0;
#X connect 58 0 59 0;
#X connect 58 0 61 0;
#X connect 59 0 58 1;
#X connect 60 0 68 1;
#X connect 61 0 65 0;
#X connect 62 0 64 0;
#X connect 63 0 67 0;
#X connect 64 0 66 0;
#X connect 65 0 62 0;
#X connect 65 0 63 0;
#X connect 66 0 68 0;
#X connect 67 0 69 0;
#X connect 68 0 72 0;
#X connect 69 0 72 0;
#X connect 70 0 69 1;
#X connect 72 0 71 0;
#X connect 72 0 71 1;
#X connect 74 0 75 0;
#X connect 75 0 77 0;
#X connect 75 0 76 0;
#X connect 76 0 75 1;
#X connect 77 0 78 0;
#X connect 78 0 81 0;
#X connect 78 0 79 0;
#X connect 79 0 83 0;
#X connect 80 0 86 0;
#X connect 81 0 80 0;
#X connect 83 0 84 0;
#X connect 84 0 89 0;
#X connect 85 0 84 1;
#X connect 86 0 87 0;
#X connect 87 0 89 0;
#X connect 88 0 87 1;
#X connect 89 0 97 0;
#X connect 90 0 91 0;
#X connect 90 0 93 0;
#X connect 91 0 90 1;
#X connect 92 0 90 0;
#X connect 93 0 94 0;
#X connect 94 0 103 0;
#X connect 95 0 104 0;
#X connect 96 0 97 1;
#X connect 97 0 98 0;
#X connect 97 0 98 1;
#X connect 99 0 100 0;
#X connect 100 0 99 1;
#X connect 101 0 99 0;
#X connect 103 0 96 0;
#X connect 103 0 95 0;
#X connect 103 0 94 1;
#X connect 104 0 94 1;
#X connect 105 0 106 0;
#X connect 105 0 106 1;
#X connect 107 0 108 0;
#X connect 108 0 110 0;
#X connect 108 0 109 0;
#X connect 109 0 108 1;
#X connect 110 0 111 0;
#X connect 111 0 114 0;
#X connect 111 0 112 0;
#X connect 112 0 115 0;
#X connect 113 0 118 0;
#X connect 114 0 113 0;
#X connect 115 0 116 0;
#X connect 116 0 121 0;
#X connect 117 0 116 1;
#X connect 118 0 119 0;
#X connect 119 0 121 0;
#X connect 120 0 119 1;
#X connect 121 0 105 0;
#X connect 122 0 105 1;
#X connect 123 0 140 0;
#X connect 126 0 123 0;
#X connect 127 0 126 0;
#X connect 128 0 127 0;
#X connect 129 0 130 0;
#X connect 130 0 135 1;
#X connect 131 0 135 0;
#X connect 132 0 131 0;
#X connect 132 0 133 0;
#X connect 133 0 132 1;
#X connect 133 0 127 1;
#X connect 134 0 132 0;
#X connect 135 0 141 0;
#X connect 140 0 122 0;
#X connect 141 0 128 0;
#X connect 141 0 129 0;
#X connect 141 0 135 1;
