#N canvas 605 318 466 412 10;
#X obj 147 38 bng 15 250 50 0 empty empty empty 17 7 0 10 -262144 -1
-1;
#X obj 147 75 random;
#X floatatom 216 31 5 0 0 0 - - -;
#X obj 182 195 f;
#X obj 162 348 print;
#X obj 320 263 sel 1;
#X floatatom 128 349 5 0 0 0 - - -;
#X obj 147 238 sel 0;
#X obj 147 284 f;
#X obj 145 124 trigger bang float bang float;
#X obj 228 162 f;
#X obj 227 198 ==;
#X connect 0 0 1 0;
#X connect 1 0 9 0;
#X connect 2 0 1 1;
#X connect 2 0 10 1;
#X connect 3 0 5 0;
#X connect 3 0 7 0;
#X connect 5 0 1 0;
#X connect 7 0 8 0;
#X connect 8 0 6 0;
#X connect 8 0 4 0;
#X connect 9 0 3 0;
#X connect 9 1 10 1;
#X connect 9 2 10 0;
#X connect 9 3 8 1;
#X connect 9 3 11 1;
#X connect 10 0 11 0;
#X connect 11 0 3 1;
