#N canvas 1039 150 673 685 10;
#X obj 230 93 bng 15 250 50 0 empty empty empty 17 7 0 10 -262144 -1
-1;
#X msg 257 108 0;
#X obj 223 145 float;
#X obj 223 169 + 1;
#X floatatom 216 233 5 0 0 0 - - -;
#X obj 216 263 route 1 2 3 4 5 6;
#X msg 175 298 440;
#X msg 208 298 494;
#X msg 239 298 554;
#X msg 269 298 587;
#X msg 299 298 660;
#X obj 136 298 print;
#X floatatom 214 351 5 0 0 0 - - -;
#X obj 212 433 *~;
#X obj 230 406 tgl 15 0 empty empty empty 17 7 0 10 -262144 -1 -1 0
1;
#X obj 213 471 dac~;
#X msg 359 298 700;
#X msg 328 298 680;
#X obj 216 200 mod 6;
#X text 255 229 this number specifies what route will be chosen \,
or "played";
#X obj 213 380 osc~;
#X connect 0 0 2 0;
#X connect 1 0 2 1;
#X connect 2 0 3 0;
#X connect 3 0 2 1;
#X connect 3 0 18 0;
#X connect 4 0 5 0;
#X connect 5 0 6 0;
#X connect 5 0 11 0;
#X connect 5 1 7 0;
#X connect 5 2 8 0;
#X connect 5 3 9 0;
#X connect 5 4 10 0;
#X connect 5 5 17 0;
#X connect 5 6 16 0;
#X connect 6 0 12 0;
#X connect 7 0 12 0;
#X connect 8 0 12 0;
#X connect 9 0 12 0;
#X connect 10 0 12 0;
#X connect 12 0 20 0;
#X connect 13 0 15 0;
#X connect 13 0 15 1;
#X connect 14 0 13 1;
#X connect 16 0 12 0;
#X connect 17 0 12 0;
#X connect 18 0 4 0;
#X connect 20 0 13 0;
