#N canvas 937 222 450 300 10;
#X obj 86 148 osc~;
#X msg 50 106 440;
#X obj 78 35 bng 15 250 50 0 empty empty empty 17 7 0 10 -262144 -1
-1;
#X obj 173 33 bng 15 250 50 0 empty empty empty 17 7 0 10 -262144 -1
-1;
#X msg 210 145 1;
#X msg 167 147 0.5;
#X obj 122 200 *~;
#X obj 120 255 dac~;
#X msg 141 101 200;
#X connect 0 0 6 0;
#X connect 1 0 0 0;
#X connect 2 0 1 0;
#X connect 2 0 5 0;
#X connect 3 0 8 0;
#X connect 3 0 4 0;
#X connect 4 0 6 1;
#X connect 5 0 6 1;
#X connect 6 0 7 0;
#X connect 6 0 7 1;
#X connect 8 0 0 0;
