#N canvas 635 23 903 842 10;
#X msg 308 177 300 0.3;
#X msg 247 177 1000 0.8;
#X obj 204 228 unpack float float;
#X floatatom 201 265 5 0 0 0 - - -;
#X obj 201 291 osc~;
#X obj 202 320 *~;
#X obj 194 356 dac~;
#X floatatom 285 277 5 0 0 0 - - -;
#X msg 153 176 440 0.6;
#X floatatom 565 434 5 0 0 0 - - -;
#X obj 565 460 osc~;
#X obj 588 494 *~;
#X obj 580 530 dac~;
#X floatatom 610 434 5 0 0 0 - - -;
#X obj 577 141 bng 15 250 50 0 empty empty empty 17 7 0 10 -262144
-1 -1;
#X obj 566 176 float;
#X obj 570 206 + 1;
#X floatatom 564 275 5 0 0 0 - - -;
#X obj 535 304 route 1 2 3 4 5;
#X msg 498 335 460 0.8;
#X msg 551 335 480 0.3;
#X msg 659 335 500 0.6;
#X obj 542 393 unpack float float;
#X msg 711 336 530 0.6;
#X obj 564 239 mod 7;
#X msg 604 335 490 0.5;
#X obj 610 461 tgl 15 0 empty empty empty 17 7 0 10 -262144 -1 -1 0
0.5;
#X text 208 53 CHALLENGE TO CREATE LISTS WITH PITCHES AND UNPACKS;
#X text 434 573 switches to route to packed values \, then puts each
into an "unpack" for each;
#X msg 444 335 100 0.6;
#X connect 0 0 2 0;
#X connect 1 0 2 0;
#X connect 2 0 3 0;
#X connect 2 1 7 0;
#X connect 3 0 4 0;
#X connect 4 0 5 0;
#X connect 5 0 6 0;
#X connect 5 0 6 1;
#X connect 7 0 5 1;
#X connect 8 0 2 0;
#X connect 9 0 10 0;
#X connect 10 0 11 0;
#X connect 11 0 12 0;
#X connect 11 0 12 1;
#X connect 13 0 26 0;
#X connect 14 0 15 0;
#X connect 15 0 16 0;
#X connect 16 0 15 1;
#X connect 16 0 24 0;
#X connect 17 0 18 0;
#X connect 18 0 29 0;
#X connect 18 1 19 0;
#X connect 18 2 20 0;
#X connect 18 3 25 0;
#X connect 18 4 21 0;
#X connect 18 5 23 0;
#X connect 19 0 22 0;
#X connect 20 0 22 0;
#X connect 21 0 22 0;
#X connect 22 0 9 0;
#X connect 22 1 13 0;
#X connect 23 0 22 0;
#X connect 24 0 17 0;
#X connect 25 0 22 0;
#X connect 26 0 11 1;
#X connect 29 0 22 0;
