#N canvas 471 24 1278 939 10;
#X obj 123 183 print;
#X msg 123 125 0 \, 10 100;
#X obj 123 154 line 0 10;
#X obj 37 183 print;
#X msg 37 125 0 \, 10 100;
#X obj 37 154 line;
#X text 37 98 Time resolution for control data;
#X text 36 238 SENDING AND RECIEVING;
#X floatatom 36 265 5 0 0 0 - - -;
#X obj 36 293 send erwin;
#X obj 47 348 receive erwin;
#X floatatom 47 377 5 0 0 0 - - -;
#X floatatom 236 265 5 0 0 0 - - -;
#X floatatom 236 348 5 0 0 0 - - -;
#X floatatom 57 452 5 0 0 0 - - -;
#X obj 57 480 * 1;
#X obj 173 452 * 3;
#X obj 134 480 * 5;
#X obj 236 480 * 8;
#X floatatom 57 509 5 0 0 0 - - -;
#X floatatom 134 509 5 0 0 0 - - -;
#X floatatom 173 481 5 0 0 0 - - -;
#X floatatom 234 480 5 0 0 0 - - -;
#X obj 57 537 * 2;
#X obj 154 537 * 4;
#X obj 173 509 * 6;
#X obj 234 508 * 10;
#X floatatom 57 566 5 0 0 0 - - -;
#X floatatom 154 566 5 0 0 0 - - -;
#X floatatom 252 566 5 0 0 0 - - -;
#X floatatom 57 629 5 0 0 0 - - -;
#X obj 57 715 * 1;
#X obj 168 658 * 3;
#X obj 114 715 * 5;
#X obj 230 686 * 8;
#X floatatom 57 744 5 0 0 0 - - -;
#X floatatom 136 744 5 0 0 0 - - -;
#X floatatom 171 715 5 0 0 0 - - -;
#X floatatom 230 715 5 0 0 0 - - -;
#X obj 57 772 * 2;
#X obj 136 772 * 4;
#X obj 171 743 * 6;
#X obj 230 743 * 10;
#X floatatom 57 801 5 0 0 0 - - -;
#X floatatom 136 801 5 0 0 0 - - -;
#X floatatom 249 801 5 0 0 0 - - -;
#X obj 57 657 s zahl;
#X obj 57 686 r zahl;
#X obj 114 686 r zahl;
#X obj 168 629 r zahl;
#X obj 230 657 r zahl;
#X text 119 318 is the same as:;
#X text 104 605 is the same as:;
#X text 383 63 send with lists;
#X obj 401 154 remote;
#X msg 361 99 z5 344;
#X msg 423 99 numbers 21;
#X msg 504 99 erwin 555;
#X obj 370 183 r z5;
#X obj 434 183 r numbers;
#X obj 526 183 r erwin;
#X floatatom 370 212 5 0 0 0 - - -;
#X floatatom 434 212 5 0 0 0 - - -;
#X floatatom 526 212 5 0 0 0 - - -;
#X floatatom 304 99 5 0 0 0 - - -;
#X floatatom 304 870 5 0 0 0 - - -;
#X floatatom 386 319 5 0 0 0 - - -;
#X obj 386 347 value my-numbers;
#X text 350 264 GLOBAL VARIABLES;
#X obj 531 293 bng 15 250 50 0 empty empty empty 17 7 0 10 -262144
-1 -1;
#X obj 531 320 value my-numbers;
#X floatatom 531 349 5 0 0 0 - - -;
#X obj 358 424 loadbang;
#X msg 358 453 hello johannes;
#X obj 358 482 print;
#X obj 476 424 init 3;
#X text 358 397 LOADING VARIABLES ON DOCUMENT OPEN;
#X floatatom 476 453 5 0 0 0 - - -;
#X text 527 423 init shortcode is ii;
#X floatatom 527 479 5 0 0 0 - - -;
#X obj 527 450 ii 3;
#X obj 366 592 bng 20 250 50 0 empty empty empty 17 7 0 10 -258113
-1 -1;
#X text 394 605 you can like change the color and size of bullet;
#X floatatom 454 657 30 0 0 0 custom_number_label - erwin;
#X text 366 565 CHANGE THE OBJ SETTINGS;
#X floatatom 410 741 5 0 0 0 - - -;
#X obj 410 712 r erwin;
#X text 410 685 ^ set up to send signal to erwin;
#X obj 347 772 bng 20 250 50 0 empty empty empty 17 7 0 10 -4034 -204800
-258113;
#X text 374 771 you can change the color of when the bang is selected
;
#X floatatom 662 99 5 0 0 0 - - -;
#X floatatom 662 870 5 0 0 0 - - -;
#N canvas 1456 308 450 300 my-subpatch 1;
#X obj 46 39 inlet;
#X floatatom 46 73 5 0 0 0 - - -;
#X connect 0 0 1 0;
#X restore 735 162 pd my-subpatch;
#X floatatom 730 129 5 0 0 0 - - -;
#X text 781 110 unsing an inlet on the next page will pass the variable
through;
#X text 712 252 YOU CAN USE THIS AS A SUB PATCH OR MODULARIZE THE FUNCTIONALITY
OF THE CODE;
#X connect 1 0 2 0;
#X connect 2 0 0 0;
#X connect 4 0 5 0;
#X connect 5 0 3 0;
#X connect 8 0 9 0;
#X connect 10 0 11 0;
#X connect 12 0 13 0;
#X connect 14 0 15 0;
#X connect 14 0 17 0;
#X connect 14 0 18 0;
#X connect 14 0 16 0;
#X connect 15 0 19 0;
#X connect 16 0 21 0;
#X connect 17 0 20 0;
#X connect 18 0 22 0;
#X connect 19 0 23 0;
#X connect 20 0 24 0;
#X connect 21 0 25 0;
#X connect 22 0 26 0;
#X connect 23 0 27 0;
#X connect 24 0 28 0;
#X connect 26 0 29 0;
#X connect 30 0 46 0;
#X connect 31 0 35 0;
#X connect 32 0 37 0;
#X connect 33 0 36 0;
#X connect 34 0 38 0;
#X connect 35 0 39 0;
#X connect 36 0 40 0;
#X connect 37 0 41 0;
#X connect 38 0 42 0;
#X connect 39 0 43 0;
#X connect 40 0 44 0;
#X connect 42 0 45 0;
#X connect 47 0 31 0;
#X connect 48 0 33 0;
#X connect 49 0 32 0;
#X connect 50 0 34 0;
#X connect 55 0 54 0;
#X connect 56 0 54 0;
#X connect 57 0 54 0;
#X connect 58 0 61 0;
#X connect 59 0 62 0;
#X connect 60 0 63 0;
#X connect 64 0 65 0;
#X connect 66 0 67 0;
#X connect 69 0 70 0;
#X connect 70 0 71 0;
#X connect 72 0 73 0;
#X connect 73 0 74 0;
#X connect 75 0 77 0;
#X connect 80 0 79 0;
#X connect 86 0 85 0;
#X connect 90 0 91 0;
#X connect 93 0 92 0;
