#N canvas 353 23 1499 955 10;
#X text -23 31 the mtof object converts numbers to frequencies;
#X text -23 56 Here is the formula for the calculation:;
#X obj 31 119 - 69;
#X floatatom 31 92 5 0 0 0 - - -;
#X obj 31 147 / 12;
#X obj 31 175 trigger bang float;
#X msg 31 203 2;
#X obj 64 257 pow;
#X obj 64 285 * 440;
#X floatatom 64 313 5 0 0 0 - - -;
#X text 142 91 f = 440 * 2 ^(m-69)/12;
#X obj 163 284 expr 440 *(pow (2 \, (($f1-69)/12)));
#X floatatom 163 257 5 0 0 0 - - -;
#X floatatom 163 312 5 0 0 0 - - -;
#X text -28 427 f = g*2 ^a/12;
#X text -28 452 f = 440*2^3/12 = 523.2;
#X floatatom 29 474 5 0 0 0 - - -;
#X obj 29 501 / 12;
#X obj 4 535 trigger bang float;
#X msg 5 589 2;
#X obj 60 617 pow;
#X obj 60 645 * 440;
#X floatatom 108 617 5 0 0 0 - - -;
#X floatatom 60 673 5 0 0 0 - - -;
#X text -28 376 to calculate the frequency of a pitch in equal temperament
that is a certain distance away from a given frequency \, use this
formula;
#X text 65 473 half steps;
#X floatatom 213 526 5 0 0 0 - - -;
#X obj 196 589 expr $f2*(pow (2 \, ($f1/12)));
#X floatatom 338 535 5 0 0 0 - - -;
#X floatatom 196 617 5 0 0 0 - - -;
#X text 124 427 'f' is the frequency you want to know \, 'g' is the
frequency of the given pitch 'a' is the interval in half steps;
#X text 213 500 half steps;
#X floatatom 353 352 5 0 0 0 - - -;
#X floatatom -76 370 5 0 0 0 - - -;
#X text -36 694 for the inverse--- converting a frequency to MIDI;
#X text -28 351 convert MIDI to frequency;
#X floatatom 350 673 5 0 0 0 - - -;
#X floatatom -79 695 5 0 0 0 - - -;
#X text 9 717;
#X floatatom 2 718 5 0 0 0 - - -;
#X obj 2 745 / 440;
#X obj 2 773 log;
#X obj -17 794 trigger float bang;
#X floatatom -5 884 5 0 0 0 - - -;
#X msg 44 819 2;
#X obj 44 847 log;
#X obj -5 856 /;
#X obj -5 911 * 12;
#X obj -6 901 + 69;
#X obj 164 800 expr (((log($f1/440))/(log(2)))*12)+69;
#X floatatom 164 773 5 0 0 0 - - -;
#X floatatom 165 856 5 0 0 0 - - -;
#X floatatom 387 32 5 0 0 0 - - -;
#X floatatom 400 856 5 0 0 0 - - -;
#X floatatom 473 92 5 0 0 0 - - -;
#X obj 473 119 rmstodb;
#X floatatom 473 147 5 0 0 0 - - -;
#X floatatom 557 92 5 0 0 0 - - -;
#X floatatom 557 147 5 0 0 0 - - -;
#X obj 557 119 dbtorms;
#X obj 414 257 osc~ 440;
#X obj 451 313 dac~;
#X obj 499 203 hsl 128 15 0 1 0 0 empty empty empty -2 -8 0 10 -262144
-1 -1 0 1;
#X floatatom 496 229 5 0 0 0 - - -;
#X obj 496 256 sig~;
#X obj 451 285 *~;
#X text 547 233 using a slider like this with "sig~" ensures that the
numbers generated by the oscilator and those generated by the factor
("sig~" converts them into exactly 44100 numbers/sec) are synchronized
;
#X obj 522 484 vu 15 120 empty empty -1 -8 0 10 -66577 -1 1 0;
#X obj 521 454 pvu~;
#X obj 447 456 *~;
#X obj 521 426 line~;
#X msg 521 398 0 \, 1 5000;
#X obj 446 535 dac~;
#X obj 447 428 osc~ 440;
#X text 585 427 Then the VU shows changes in volume graphically.;
#X obj 474 673 osc~ 440;
#X obj 475 745 *~;
#X obj 475 773 dac~;
#X obj 548 699 line~;
#X msg 548 676 \$1 30;
#X obj 548 658 tgl 15 0 empty empty empty 17 7 0 10 -262144 -1 -1 0
1;
#X text 465 810 A "jolt" is usually a movement that is faster than
30 ms. To avoid this click \, therefore \, you need to build what's
called a "ramp" \, i.e. \, a very fast crescendo at the beginning and
end;
#X text 613 381;
#X floatatom 861 33 5 0 0 0 - - -;
#X floatatom 874 857 5 0 0 0 - - -;
#X text 927 47 PHASE OF WAVE;
#X obj 928 121 osc~ 440;
#X obj 942 153 *~;
#X obj 943 182 dac~;
#X obj 988 137 tgl 15 0 empty empty empty 17 7 0 10 -262144 -1 -1 0
1;
#X msg 973 84 0.5;
#X text 1011 104 In Pd \, you can also set membrane position for a
sound wave where it should begin (or where it should jump to). This
is called the phase of a wave. You can set the phase in Pd in the right
inlet of the "osc~" object with numbers between 0 and 1;
#X msg 924 259 0;
#X msg 973 258 0.5;
#X obj 956 232 bng 15 250 50 0 empty empty empty 17 7 0 10 -262144
-1 -1;
#X obj 905 286 osc~ 440;
#X obj 973 286 osc~ 440;
#X obj 978 335 *~;
#X obj 911 335 *~;
#X obj 995 312 tgl 15 0 empty empty empty 17 7 0 10 -262144 -1 -1 1
1;
#X obj 926 310 tgl 15 0 empty empty empty 17 7 0 10 -262144 -1 -1 1
1;
#X obj 922 374 dac~;
#X text 982 226 start both waves at the same time;
#X obj 902 439 osc~ 440;
#X obj 973 438 osc~ 2000;
#X obj 930 481 *~ 0.5;
#X obj 925 517 dac~;
#X obj 984 458 tgl 15 0 empty empty empty 17 7 0 10 -262144 -1 -1 0
1;
#X text 1050 286 THIS DOESNT WORK BECAUSE SOUND IS ADDITIVE;
#X text 978 207 ADDITIVE SOUNDS;
#X text 1059 416 when many sounds are involved \, we usually have to
multiply the total sound by a suitable factor to avoid exceeding the
limits of 1 and -1;
#X text 981 481 devide by factor to avoid exceeding 1 & -1;
#X connect 2 0 4 0;
#X connect 3 0 2 0;
#X connect 4 0 5 0;
#X connect 5 0 6 0;
#X connect 5 1 7 1;
#X connect 6 0 7 0;
#X connect 7 0 8 0;
#X connect 8 0 9 0;
#X connect 11 0 13 0;
#X connect 12 0 11 0;
#X connect 16 0 17 0;
#X connect 17 0 18 0;
#X connect 18 0 19 0;
#X connect 18 1 20 1;
#X connect 19 0 20 0;
#X connect 20 0 21 0;
#X connect 21 0 23 0;
#X connect 22 0 21 1;
#X connect 26 0 27 0;
#X connect 27 0 29 0;
#X connect 28 0 27 1;
#X connect 32 0 33 0;
#X connect 36 0 37 0;
#X connect 39 0 40 0;
#X connect 40 0 41 0;
#X connect 41 0 42 0;
#X connect 42 0 46 0;
#X connect 42 1 44 0;
#X connect 44 0 45 0;
#X connect 45 0 46 1;
#X connect 46 0 47 0;
#X connect 47 0 48 0;
#X connect 48 0 43 0;
#X connect 49 0 51 0;
#X connect 50 0 49 0;
#X connect 52 0 53 0;
#X connect 54 0 55 0;
#X connect 55 0 56 0;
#X connect 57 0 59 0;
#X connect 59 0 58 0;
#X connect 60 0 65 0;
#X connect 62 0 63 0;
#X connect 63 0 64 0;
#X connect 64 0 65 1;
#X connect 65 0 61 0;
#X connect 65 0 61 1;
#X connect 68 0 67 0;
#X connect 69 0 68 0;
#X connect 69 0 72 0;
#X connect 69 0 72 1;
#X connect 71 0 70 0;
#X connect 73 0 69 0;
#X connect 75 0 76 0;
#X connect 76 0 77 0;
#X connect 76 0 77 1;
#X connect 78 0 76 1;
#X connect 79 0 78 0;
#X connect 80 0 79 0;
#X connect 83 0 84 0;
#X connect 86 0 87 0;
#X connect 87 0 88 0;
#X connect 87 0 88 1;
#X connect 89 0 87 1;
#X connect 90 0 86 1;
#X connect 92 0 95 0;
#X connect 93 0 96 0;
#X connect 94 0 92 0;
#X connect 94 0 93 0;
#X connect 95 0 98 0;
#X connect 96 0 97 0;
#X connect 97 0 101 0;
#X connect 97 0 101 1;
#X connect 98 0 101 0;
#X connect 98 0 101 1;
#X connect 99 0 97 1;
#X connect 100 0 98 1;
#X connect 103 0 105 0;
#X connect 104 0 105 0;
#X connect 105 0 106 0;
#X connect 105 0 106 1;
#X connect 107 0 105 1;
