#N canvas 640 31 1396 884 10;
#X obj 123 75 hsl 128 15 0 127 0 0 empty empty empty -2 -8 0 10 -262144
-1 -1 1400 1;
#X obj 270 75 hsl 128 15 0 1 0 0 empty empty empty -2 -8 0 10 -262144
-1 -1 2100 1;
#X obj 418 75 hsl 128 15 0 127 0 0 empty empty empty -2 -8 0 10 -262144
-1 -1 2100 1;
#X obj 566 75 hsl 128 15 0 127 0 0 empty empty empty -2 -8 0 10 -262144
-1 -1 1200 1;
#X obj 717 75 hsl 128 15 0 127 0 0 empty empty empty -2 -8 0 10 -262144
-1 -1 800 1;
#X msg 120 106 \$1 20;
#X msg 267 106 \$1 20;
#X msg 415 106 \$1 20;
#X obj 563 106 \$1 20;
#X obj 714 106 \$1 20;
#X obj 120 139 line~;
#X obj 267 139 line~;
#X obj 415 139 line~;
#X obj 563 139 line~;
#X obj 714 139 line~;
#X obj 54 106 osc~ 300;
#X obj 207 106 osc~ 500;
#X obj 346 129 osc~ 1100;
#X obj 501 129 osc~ 1300;
#X obj 644 129 osc~ 3000;
#X obj 88 159 *~;
#X obj 243 159 *~;
#X obj 384 159 *~;
#X obj 563 172 *~;
#X obj 693 159 *~;
#X obj 370 226 *~;
#X obj 370 259 dac~;
#X obj 455 226 hsl 128 15 0 1 0 0 empty empty empty -2 -8 0 10 -262144
-1 -1 0 1;
#X msg 472 259 \$1 20;
#X obj 472 292 line~;
#X text 197 31 Create a chord with variable volume for every tone in
the chord;
#X text 153 344 GLISSANDI ________;
#X msg 132 393 70 13000;
#X msg 205 393 50 10000;
#X msg 274 393 80 3000;
#X msg 340 393 100 8000;
#X obj 133 465 line;
#X msg 81 365 40;
#X obj 248 465 unpack float float;
#X obj 353 503 trigger bang float;
#X floatatom 133 498 5 0 0 0 - - -;
#X obj 133 530 mtof;
#X obj 133 563 sig~;
#X obj 133 603 osc~;
#X obj 134 652 *~;
#X obj 134 685 dac~;
#X obj 462 533 - 1000;
#X obj 396 533 del;
#X msg 419 577 0 1000;
#X msg 353 577 1 1000;
#X text 397 558 the bang for the decrescendo arrives;
#X obj 377 609 line~;
#X text 49 340 starting tone;
#X obj 649 472 line;
#X msg 597 372 40;
#X obj 764 472 unpack float float;
#X obj 869 510 trigger bang float;
#X floatatom 649 505 5 0 0 0 - - -;
#X obj 649 537 mtof;
#X obj 649 570 sig~;
#X obj 649 610 osc~;
#X obj 650 659 *~;
#X obj 650 692 dac~;
#X obj 978 540 - 1000;
#X obj 912 540 del;
#X msg 935 584 0 1000;
#X msg 869 584 1 1000;
#X text 913 565 the bang for the decrescendo arrives;
#X obj 893 616 line~;
#X floatatom 1002 518 5 0 0 0 - - -;
#X text 892 473 unpack tha numbers;
#X obj 650 259 vsl 15 128 0 127 0 0 empty empty empty 0 -9 0 10 -262144
-1 -1 4600 1;
#X obj 733 243 vsl 15 128 0 127 0 0 empty empty empty 0 -9 0 10 -262144
-1 -1 6900 1;
#X obj 795 251 vsl 15 128 0 127 0 0 empty empty empty 0 -9 0 10 -262144
-1 -1 4800 1;
#X obj 861 249 vsl 15 128 70 100 0 0 empty empty empty 0 -9 0 10 -262144
-1 -1 600 1;
#X msg 648 400 \$1 13000;
#X msg 721 400 \$1 10000;
#X msg 790 400 \$1 10000;
#X msg 856 400 \$1 10000;
#X connect 0 0 5 0;
#X connect 1 0 6 0;
#X connect 2 0 7 0;
#X connect 3 0 8 0;
#X connect 4 0 9 0;
#X connect 5 0 10 0;
#X connect 6 0 11 0;
#X connect 7 0 12 0;
#X connect 8 0 13 0;
#X connect 9 0 14 0;
#X connect 10 0 20 1;
#X connect 11 0 21 1;
#X connect 12 0 22 1;
#X connect 13 0 23 1;
#X connect 14 0 24 1;
#X connect 15 0 20 0;
#X connect 16 0 21 0;
#X connect 17 0 22 0;
#X connect 18 0 23 0;
#X connect 19 0 24 0;
#X connect 20 0 25 0;
#X connect 21 0 25 0;
#X connect 22 0 25 0;
#X connect 23 0 25 0;
#X connect 24 0 25 0;
#X connect 25 0 26 0;
#X connect 25 0 26 1;
#X connect 27 0 28 0;
#X connect 28 0 29 0;
#X connect 29 0 25 1;
#X connect 32 0 36 0;
#X connect 32 0 38 0;
#X connect 33 0 36 0;
#X connect 33 0 38 0;
#X connect 34 0 36 0;
#X connect 34 0 38 0;
#X connect 35 0 36 0;
#X connect 35 0 38 0;
#X connect 36 0 40 0;
#X connect 37 0 36 0;
#X connect 38 1 39 0;
#X connect 39 0 47 0;
#X connect 39 0 49 0;
#X connect 39 1 46 0;
#X connect 40 0 41 0;
#X connect 41 0 42 0;
#X connect 42 0 43 0;
#X connect 43 0 44 0;
#X connect 44 0 45 0;
#X connect 44 0 45 1;
#X connect 46 0 47 1;
#X connect 47 0 48 0;
#X connect 48 0 51 0;
#X connect 49 0 51 0;
#X connect 51 0 44 1;
#X connect 53 0 57 0;
#X connect 54 0 53 0;
#X connect 55 1 56 0;
#X connect 56 0 64 0;
#X connect 56 0 66 0;
#X connect 56 1 63 0;
#X connect 56 1 69 0;
#X connect 57 0 58 0;
#X connect 58 0 59 0;
#X connect 59 0 60 0;
#X connect 60 0 61 0;
#X connect 61 0 62 0;
#X connect 61 0 62 1;
#X connect 63 0 64 1;
#X connect 64 0 65 0;
#X connect 65 0 68 0;
#X connect 66 0 68 0;
#X connect 68 0 61 1;
#X connect 71 0 75 0;
#X connect 72 0 76 0;
#X connect 73 0 77 0;
#X connect 74 0 78 0;
#X connect 75 0 53 0;
#X connect 75 0 55 0;
#X connect 76 0 53 0;
#X connect 76 0 55 0;
#X connect 77 0 53 0;
#X connect 77 0 55 0;
#X connect 78 0 53 0;
#X connect 78 0 55 0;
